<svg width="26" height="23" viewBox="0 0 26 23" fill="none" xmlns="http://www.w3.org/2000/svg">
<path d="M15.7601 14.931L14.2222 11.5582C14.1149 11.3229 13.9259 11.1344 13.6903 11.0278L10.3198 9.50269C9.48284 9.12399 9.48189 7.93575 10.3182 7.55571L13.7009 6.0186C13.9363 5.91161 14.125 5.7229 14.2319 5.48745L15.756 2.13136C16.1353 1.2963 17.321 1.29524 17.7017 2.12962L19.2308 5.48073C19.3377 5.71499 19.5256 5.90279 19.7599 6.0096L23.1472 7.55381C23.9828 7.93475 23.9807 9.1225 23.1438 9.50054L19.7641 11.0271C19.5272 11.1341 19.3374 11.3238 19.2303 11.5606L17.7065 14.9282C17.3281 15.7645 16.1409 15.7662 15.7601 14.931Z" fill="#FEFEFF"/>
<path opacity="0.5" d="M7.19532 22.0345L6.15149 19.7452C6.10857 19.6511 6.03297 19.5757 5.93872 19.5331L3.64959 18.4973C3.31481 18.3458 3.31443 17.8705 3.64896 17.7185L5.94458 16.6753C6.03875 16.6325 6.11422 16.5571 6.15699 16.4629L7.19218 14.1834C7.34387 13.8494 7.81816 13.849 7.97045 14.1827L9.00901 16.4588C9.05177 16.5525 9.12691 16.6276 9.22063 16.6703L11.5181 17.7177C11.8524 17.8701 11.8515 18.3452 11.5168 18.4964L9.22233 19.5328C9.12758 19.5756 9.05167 19.6515 9.0088 19.7462L7.97388 22.0334C7.8225 22.3679 7.34765 22.3686 7.19532 22.0345Z" fill="#FEFEFF"/>
<path opacity="0.2" d="M4.10672 7.95668L3.19309 5.95296C3.17163 5.90589 3.13384 5.8682 3.08671 5.84688L1.08236 4.93995C0.914976 4.86421 0.914785 4.62656 1.08205 4.55055L3.09113 3.6376C3.13822 3.61621 3.17595 3.57846 3.19734 3.53137L4.10378 1.53544C4.17962 1.36843 4.41677 1.36822 4.49291 1.53509L5.4023 3.52807C5.42368 3.57492 5.46125 3.61248 5.50811 3.63384L7.51813 4.55017C7.68525 4.62636 7.68483 4.86391 7.51745 4.93951L5.50896 5.84675C5.46158 5.86815 5.42363 5.90608 5.4022 5.95344L4.496 7.95612C4.42032 8.12338 4.18289 8.12372 4.10672 7.95668Z" fill="#FEFEFF"/>
</svg>
